<?xml version="1.0" encoding="UTF-8"?>
<svg xmlns="http://www.w3.org/2000/svg" version="1.1" viewBox="0 0 512 512">
  <defs>
    <style>
      .mountain { fill: #16533a; }
      .route { fill: #3ecfaf; }

      @media (prefers-color-scheme: dark) {
        .mountain { fill: #ffffff; }
      }
    </style>
  </defs>
  <g id="Mountains">
    <g>
      <path class="mountain" d="M59.7,346.5c28,0,52.7,14.6,66.8,36.5h154.1c11.2-13.1,18.5-30.5,18-55.9-.4-19.7-14.6-46-28.4-71.6-17-31.7-34.7-64.4-35-98.7,0-12.8,1.4-24,3.9-34l-49.4-90.3L6.6,366.8c14-12.6,32.7-20.1,52.9-20.1h.1Z"/>
      <path class="mountain" d="M384,151.5c-.5-.4-.9-.8-1.5-1.4l-43.5,79.3c16.2,30.4,31.6,61.8,32.4,95.9.4,20.8-2.3,40-8.4,57.5h147.7l-126.5-231.2s-.3-.1-.4-.3h.1Z"/>
    </g>
  </g>
  <g id="RouteLine">
    <path class="route" d="M171.5,481.8c-49,0-80.1-19.8-82.1-21.2-7.4-4.9-9.6-15-4.6-22.4,4.9-7.4,14.9-9.6,22.4-4.7,2.4,1.6,59.1,36.7,140.8-3,11.5-5.7,30.8-15,46.2-31.3,18-19.2,26.3-42.9,25.7-72.6-.5-24.6-15.9-53.2-30.8-80.7-15.9-29.4-32.3-60-32.5-89.3-.3-31.2,10.1-55.6,30.7-72.4,44.6-36.5,121.1-20.9,124.4-20.3,8.8,1.9,14.3,10.4,12.6,19.2-1.9,8.8-10.4,14.4-19.2,12.6-.7,0-64.8-13-97.2,13.8-12.7,10.4-18.9,25.8-18.6,47,.1,21.2,14,46.9,28.6,74.1,16.7,30.9,33.9,62.9,34.7,95.3.8,38.1-10.7,70.2-34.4,95.5-19.4,20.8-42.1,31.7-55.6,38.3-34,16.6-64.8,22.1-90.6,22.1h-.3Z"/>
    <g>
      <polygon class="route" points="494.6 94.4 419.4 42.7 408.2 123.4 494.6 94.4"/>
      <path class="route" d="M408.2,139.6c-3.8,0-7.4-1.4-10.4-3.8-4.3-3.6-6.5-9.2-5.7-14.7l11.3-80.7c.8-5.5,4.3-10.3,9.5-12.6,5.1-2.3,11.1-1.8,15.7,1.5l75.1,51.7c5,3.5,7.7,9.5,6.9,15.5s-5,11.2-10.9,13.1l-86.4,29.2c-1.8.5-3.4.8-5.1.8h.1ZM431.8,70.9l-4.1,28.9,30.9-10.4-26.9-18.5Z"/>
    </g>
    <g>
      <circle class="route" cx="60.6" cy="426.2" r="43.2"/>
      <path class="route" d="M60.6,485.6c-32.8,0-59.4-26.6-59.4-59.4s26.6-59.4,59.4-59.4,59.4,26.6,59.4,59.4-26.6,59.4-59.4,59.4ZM60.6,399.2c-14.9,0-27,12.2-27,27s12.2,27,27,27,27-12.2,27-27-12.2-27-27-27Z"/>
    </g>
  </g>
</svg>
