<?xml version="1.0" encoding="UTF-8"?>
<svg id="Layer_1" xmlns="http://www.w3.org/2000/svg" version="1.1" viewBox="0 0 510.5 459.9">
  <!-- Generator: Adobe Illustrator 29.7.1, SVG Export Plug-In . SVG Version: 2.1.1 Build 8)  -->
  <defs>
    <style>
      .st0 {
        fill: #16533a;
      }

      .st1, .st2 {
        fill: #fff;
      }

      .st1, .st3 {
        display: none;
      }
    </style>
  </defs>
  <g id="Background" class="st3">
    <rect class="st0" x="-.7" y="-30" width="512" height="512"/>
  </g>
  <g id="Mountains">
    <g>
      <path class="st2" d="M58.6,320.6c28,0,52.7,14.6,66.9,36.5h154.3c11.2-13.1,18.5-30.6,18-56-.4-19.7-14.6-46.1-28.4-71.7-17-31.8-34.8-64.5-35-98.9,0-12.8,1.4-24.1,3.9-34.1L188.8,5.9,5.4,340.9c14.1-12.6,32.7-20.2,53-20.2h.2Z"/>
      <path class="st2" d="M383.4,125.3c-.5-.4-.9-.8-1.5-1.4l-43.5,79.4c16.2,30.4,31.6,61.9,32.5,96,.4,20.8-2.3,40-8.4,57.6h148l-126.7-231.5s-.3-.1-.4-.3h.1v.2Z"/>
    </g>
    <polygon class="st1" points="188.3 62.1 149.7 132.4 226.8 132.4 188.3 62.1"/>
    <polygon class="st1" points="382 160.6 356.3 207.4 407.7 207.4 382 160.6"/>
  </g>
  <g id="RouteLine">
    <path class="st2" d="M170.6,456.1c-49.1,0-80.2-19.9-82.2-21.2-7.4-4.9-9.6-15-4.6-22.5,4.9-7.4,14.9-9.6,22.5-4.7,2.4,1.6,59.2,36.8,141.1-3,11.5-5.7,30.8-15,46.3-31.4,18-19.2,26.4-43,25.7-72.8-.5-24.6-16-53.3-30.8-80.9-16-29.5-32.3-60-32.6-89.4-.3-31.2,10.1-55.7,30.7-72.5,44.6-36.5,121.3-21,124.6-20.3,8.8,1.9,14.3,10.4,12.6,19.2-1.9,8.8-10.4,14.5-19.2,12.6-.7,0-64.9-13-97.4,13.8-12.7,10.4-18.9,25.8-18.7,47.1.1,21.2,14.1,46.9,28.7,74.2,16.8,31,33.9,63,34.8,95.5.8,38.1-10.7,70.3-34.5,95.6-19.5,20.8-42.2,31.8-55.7,38.4-34.1,16.6-64.9,22.2-90.7,22.2h-.6Z"/>
    <g>
      <polygon class="st2" points="494.2 68.1 418.9 16.3 407.7 97.1 494.2 68.1"/>
      <path class="st2" d="M407.7,113.4c-3.8,0-7.4-1.4-10.4-3.8-4.3-3.7-6.5-9.2-5.7-14.7l11.4-80.9c.8-5.5,4.3-10.3,9.5-12.6,5.1-2.3,11.1-1.8,15.7,1.5l75.2,51.8c5,3.5,7.7,9.5,6.9,15.6s-5,11.2-11,13.1l-86.6,29.2c-1.8.5-3.4.8-5.1.8h.1ZM431.3,44.5l-4.1,28.9,31-10.4-26.9-18.5Z"/>
    </g>
    <g>
      <circle class="st2" cx="59.5" cy="400.4" r="43.3"/>
      <path class="st2" d="M59.5,459.9c-32.9,0-59.5-26.6-59.5-59.5s26.6-59.5,59.5-59.5,59.5,26.6,59.5,59.5-26.6,59.5-59.5,59.5ZM59.5,373.3c-14.9,0-27,12.2-27,27s12.2,27,27,27,27-12.2,27-27-12.2-27-27-27Z"/>
    </g>
  </g>
</svg>
