<?xml version="1.0" encoding="UTF-8"?>
<svg id="Layer_1" xmlns="http://www.w3.org/2000/svg" version="1.1" viewBox="0 0 480 480">
  <!-- Generator: Adobe Illustrator 29.7.1, SVG Export Plug-In . SVG Version: 2.1.1 Build 8)  -->
  <defs>
    <style>
      .st0 {
        fill: #fff;
      }
    </style>
  </defs>
  <polygon class="st0" points="357.9 113.2 201.5 470.2 114.1 470.2 269.2 113.2 357.9 113.2"/>
  <polygon class="st0" points="293.9 9.8 137.5 366.8 50.1 366.8 206.5 9.8 293.9 9.8"/>
  <path class="st0" d="M3.3,231.4c-2-1.7-3.4-1-1.5-4.9l52-113.3h87.4l-51.7,118.2H3.3Z"/>
  <path class="st0" d="M478.5,83.7l1.5,7.4c-27.3,55.2-49.5,113-74.8,169.1-4.2,9.4-15.3,37.7-19.9,43.6-4.7,5.9-3.7,1.2-5.2,1.7h-81.2c-3.2-3.2-2.7-3.2-1.5-7.4l95-214.2h86.2v-.2Z"/>
</svg>
