<?xml version="1.0" encoding="UTF-8"?>
<svg xmlns="http://www.w3.org/2000/svg" xmlns:svg="http://www.w3.org/2000/svg" xmlns:sodipodi="http://sodipodi.sourceforge.net/DTD/sodipodi-0.dtd" xmlns:rdf="http://www.w3.org/1999/02/22-rdf-syntax-ns#" xmlns:inkscape="http://www.inkscape.org/namespaces/inkscape" xmlns:dc="http://purl.org/dc/elements/1.1/" xmlns:cc="http://creativecommons.org/ns#" version="1.1" viewBox="0 0 462.9 462.9">
  <!-- Generator: Adobe Illustrator 29.7.1, SVG Export Plug-In . SVG Version: 2.1.1 Build 8)  -->
  <g id="svg8" inkscape:version="1.0.2 (e86c8708, 2021-01-15)" sodipodi:docname="intervals-logo.svg">
    <sodipodi:namedview id="base" bordercolor="#666666" borderopacity="1.0" fit-margin-bottom="0" fit-margin-left="0" fit-margin-right="0" fit-margin-top="0" inkscape:current-layer="layer1" inkscape:cx="314.28571" inkscape:cy="440" inkscape:document-rotation="0" inkscape:document-units="mm" inkscape:pageopacity="0.0" inkscape:pageshadow="2" inkscape:window-height="915" inkscape:window-maximized="0" inkscape:window-width="1252" inkscape:window-x="0" inkscape:window-y="23" inkscape:zoom="0.35" pagecolor="#ffffff" showgrid="false"/>
    <path d="M231.4-.3C103.6-.3,0,103.4,0,231.2s103.6,231.4,231.4,231.4,231.4-103.6,231.4-231.4S359.2-.3,231.4-.3ZM438.7,270.3l-107.9,14.8c-9.2,1.3-17.7-4.8-19.7-13.7l-.6-2.6-19.2-87.2-48.4,188.3h0c-2.4,9.6-12.1,15.3-21.6,12.9-6-1.6-10.6-6.2-12.4-11.7l-49-149.8-13.5,47.7-.5,1.9c-2.1,7.3-9.1,11.8-16.3,11l-105-11.6c-3.3-.4-5.6-3.3-5.2-6.5.3-2.8,2.5-4.9,5.2-5.2l91.2-10.1,25.3-94.7c2.6-9.7,12.6-15.5,22.4-12.9,6.2,1.7,10.8,6.3,12.6,12v.2c0,0,47.2,146.7,47.2,146.7l49.9-210.5c2.6-10.9,13.5-17.6,24.4-15,7.8,1.8,13.4,7.9,15.1,15.2v.3c0,0,35.3,156.3,35.3,156.3l90.8,12.5h0c3.3.4,5.5,3.4,5.1,6.7-.4,2.7-2.5,4.7-5.1,5.1Z"/>
  </g>
</svg>
