<?xml version="1.0" encoding="UTF-8"?>
<svg id="Layer_1" xmlns="http://www.w3.org/2000/svg" version="1.1" viewBox="0 0 512 512">
  <!-- Generator: Adobe Illustrator 29.7.1, SVG Export Plug-In . SVG Version: 2.1.1 Build 8)  -->
  <defs>
    <style>
      .st0 {
        fill: #171717;
      }
    </style>
  </defs>
  <path d="M120,367c8.4-18.2,8.5-39.9,33.5-42,44.1-3.8,93.5,3.1,138,0,66.4-4.6,124.7-65.9,120.5-133.5-.4-6.5-3.4-14.1-2-20.5,41.2,71.9,23.1,166.6-40,219.5-76.1,63.8-187.9,53.2-250-23.5ZM407,166c-2.3.7-2,2.5-1.9,4.3.2,4.1,2.3,9.8,2.8,14.3,5.1,48.5-20.9,95.9-62.9,119.9-54.6,31.2-132.6,12.2-193.6,17.4s-25.6,24.1-34.5,42c1.1,1.5,2.3,2.2,3,3,8.4-18.2,8.5-39.9,33.5-42,44.1-3.8,93.5,3.1,138,0,66.4-4.6,124.7-65.9,120.5-133.5-.4-6.5-3.4-14.1-2-20.5-.9-1.6-2-3.4-3-5Z"/>
  <path class="st0" d="M407,166c-2.3.7-2,2.5-1.9,4.3.2,4.1,2.3,9.8,2.8,14.3,5.1,48.5-20.9,95.9-62.9,119.9-54.6,31.2-132.6,12.2-193.6,17.4s-25.6,24.1-34.5,42c-29.4-38.3-42.7-85.8-35-134h192.6c1.4.6,2.8-.9,3.4-1,18.2-3.6,30.7-23.5,18-39.5-2.5-3.2-10.6-8.5-14.5-8.5H97c41-90.3,153.1-128,241-80.5,29.2,15.8,51.6,37.4,69,65.5ZM82,230h192.6c1.4.6,2.8-.9,3.4-1l-196,1Z"/>
</svg>
