<?xml version="1.0" encoding="UTF-8"?>
<svg id="Layer_1" xmlns="http://www.w3.org/2000/svg" version="1.1" viewBox="0 0 512 461.3">
  <!-- Generator: Adobe Illustrator 29.7.1, SVG Export Plug-In . SVG Version: 2.1.1 Build 8)  -->
  <defs>
    <style>
      .st0 {
        fill: #16533a;
      }

      .st1 {
        fill: #fff;
      }

      .st1, .st2 {
        display: none;
      }
    </style>
  </defs>
  <g id="Background" class="st2">
    <rect class="st0" y="-25.4" width="512" height="512"/>
  </g>
  <g id="Mountains">
    <path id="Mountains1" d="M5.6,341.9L189.5,6l49.7,90.8c-2.6,10-4.1,21.3-3.9,34.2.3,34.5,17.9,67.3,35.1,99.2,13.8,25.6,28.1,52.1,28.5,71.9.5,25.5-6.6,43.1-18,56.2H126c-14.2-22-39.1-36.6-67.2-36.6s-39.1,7.7-53.2,20.2h0,0ZM384.6,125.6c-.5-.4-.9-.8-1.5-1.4l-43.7,79.6c16.3,30.5,31.7,62.1,32.6,96.3.4,20.9-2.3,40.2-8.4,57.8h148.4l-127.1-232.3s-.3-.1-.4-.3h.1v.3Z"/>
    <path id="Snow" class="st1" d="M227.5,132.8h-77.3l38.7-70.5,38.7,70.5h0ZM383.1,161l-25.8,47.1h51.6l-25.8-47.1h0Z"/>
  </g>
  <g id="RouteLine">
    <path id="Path" d="M171.1,457.5c-49.2,0-80.4-19.9-82.5-21.3-7.5-4.9-9.6-15.1-4.6-22.5,4.9-7.5,14.9-9.6,22.5-4.7,2.4,1.6,59.4,36.9,141.5-3,11.5-5.7,30.9-15.1,46.4-31.5,18-19.3,26.5-43.1,25.8-73-.5-24.7-16-53.5-30.9-81.1-16-29.6-32.4-60.2-32.7-89.7-.3-31.3,10.2-55.9,30.8-72.7,44.8-36.6,121.7-21,124.9-20.3,8.8,1.9,14.4,10.4,12.6,19.3-1.9,8.8-10.4,14.5-19.3,12.6-.7,0-65.1-13-97.7,13.8-12.8,10.4-19,25.9-18.7,47.2.1,21.3,14.1,47.1,28.8,74.5,16.8,31.1,34.1,63.2,34.9,95.8.8,38.3-10.7,70.5-34.6,95.9-19.5,20.9-42.3,31.9-55.9,38.5-34.2,16.7-65.1,22.2-91,22.2h-.3,0Z"/>
    <g id="End">
      <polygon points="495.7 68.2 420.2 16.3 408.9 97.4 495.7 68.2"/>
      <path d="M408.9,113.7c-3.8,0-7.5-1.4-10.4-3.8-4.3-3.7-6.5-9.2-5.7-14.8l11.4-81.1c.8-5.6,4.3-10.3,9.5-12.6,5.2-2.3,11.1-1.8,15.7,1.5l75.4,52c5,3.5,7.7,9.5,6.9,15.6-.8,6.1-5,11.3-11,13.2l-86.8,29.3c-1.8.5-3.4.8-5.2.8h.2ZM432.6,44.6l-4.1,29,31.1-10.4-27-18.6Z"/>
    </g>
    <g id="Start">
      <circle cx="59.7" cy="401.6" r="43.4" transform="translate(-344.2 443.1) rotate(-87.4)"/>
      <path d="M59.7,461.3c-33,0-59.7-26.7-59.7-59.7s26.7-59.7,59.7-59.7,59.7,26.7,59.7,59.7-26.7,59.7-59.7,59.7ZM59.7,374.4c-14.9,0-27.1,12.2-27.1,27.1s12.2,27.1,27.1,27.1,27.1-12.2,27.1-27.1-12.2-27.1-27.1-27.1Z"/>
    </g>
  </g>
</svg>
