<?xml version="1.0" encoding="UTF-8"?>
<svg id="Layer_1" xmlns="http://www.w3.org/2000/svg" version="1.1" viewBox="0 0 480 480">
  <!-- Generator: Adobe Illustrator 29.7.1, SVG Export Plug-In . SVG Version: 2.1.1 Build 8)  -->
  <defs>
    <style>
      .st0 {
        display: none;
        fill: #010f31;
      }
    </style>
  </defs>
  <path class="st0" d="M396,0c19.8,3.7,37.4,10.5,52.5,24,17.9,16,26.8,35.7,31.5,59v315c-4.5,18.6-10.3,34.8-23,49.5s-36.8,28.3-61,32.5H82c-19.1-4.6-35.7-10.7-50.5-24-17.8-15.9-26.4-35-31.5-58V82c2.5-7,3.7-14.3,6.2-21.3C16.3,33.4,40.2,11.5,68.2,3.7l14.8-3.7h313ZM264,139h-35.5l-63.5,145h35.5l63.5-145ZM304,169l-38.6,87c-.5,1.7-.8,1.7.6,3s1,.9,2.4,1.1c6.7.7,20.4.6,27.2,0,2-.2,2.1-.6,3.4-1.1s1.2.4,2.1-.7c1.9-2.3,6.4-13.9,8.1-17.7,10.3-22.8,19.3-46.2,30.4-68.7l-.6-3c-1-1.7-3.8-1-5.5-1h-24c-8,0-4.4-.6-5.5,1h0ZM146,229c1,.9.9.9,2.4,1.1,7.4.7,21.7.6,29.2,0,1.2-.1,2.7.3,3.4-1.1l21-48h-35.5l-21.1,46c-.9,1.6-.2,1.3.6,2h0ZM290,181h-36l-63,145h35.5l63.5-145Z"/>
  <polygon points="357.9 113.2 201.5 470.2 114.1 470.2 269.2 113.2 357.9 113.2"/>
  <polygon points="293.9 9.8 137.5 366.8 50.1 366.8 206.5 9.8 293.9 9.8"/>
  <path d="M3.3,231.4c-2-1.7-3.4-1-1.5-4.9l52-113.3h87.4l-51.7,118.2H3.3Z"/>
  <path d="M478.5,83.7l1.5,7.4c-27.3,55.2-49.5,113-74.8,169.1-4.2,9.4-15.3,37.7-19.9,43.6-4.7,5.9-3.7,1.2-5.2,1.7h-81.2c-3.2-3.2-2.7-3.2-1.5-7.4l95-214.2h86.2v-.2Z"/>
</svg>
