<?xml version="1.0" encoding="UTF-8"?>
<svg id="Layer_1" xmlns="http://www.w3.org/2000/svg" version="1.1" viewBox="0 0 1024 1024">
  <!-- Generator: Adobe Illustrator 29.7.1, SVG Export Plug-In . SVG Version: 2.1.1 Build 8)  -->
  <defs>
    <style>
      .st0 {
        fill: #11aeed;
      }
    </style>
  </defs>
  <path class="st0" d="M830.3,314.1c-64-97.5-174.6-159.3-298.7-159.3s-312.6,112.6-354.4,274.5l-5.4,27.6H14l4.1-34C65.4,177.8,282.2,0,533.6,0s394.7,129.7,472.8,314.8c4.1,9.6,15.7,29-13.9,29h-118.8c-24.2,0-36.8-20.2-43.3-29.8h-.2ZM818.1,718.2c-67.7,92.7-177.4,150.9-298,150.9s-308.5-112.5-345.7-273.4l-3.1-23.1H11.9l3.3,29c40.1,244.3,251.7,422.1,502.8,422.3h0c209,0,393.8-122.1,478.3-303.2,6.3-13.3,22.6-40.9-11.1-40.9h-116.2c-27,0-42.4,26.1-51.2,38.1l.2.2Z"/>
</svg>
