<?xml version="1.0" encoding="UTF-8"?>
<svg id="Layer_1" xmlns="http://www.w3.org/2000/svg" version="1.1" viewBox="0 0 512 512">
  <!-- Generator: Adobe Illustrator 29.7.1, SVG Export Plug-In . SVG Version: 2.1.1 Build 8)  -->
  <defs>
    <style>
      .st0 {
        fill: #d00027;
      }

      .st1 {
        fill: #b90c2f;
      }
    </style>
  </defs>
  <path class="st0" d="M408,168c.2.4.6.7,1,1,0,.3,0,.7,0,1,3.6,37.6,4.5,61.3-17,94.5-56,86.8-151.7,53.7-237.6,60.4-26.2,2.1-25.7,22.8-34.5,42-2-2.5-4.6-4.7-6.8-7.7-27-37.2-38.7-84.7-31.2-130.3h198.5c1.3,0,7.7-3.7,9.2-4.8,11.3-8,15.3-24.2,5.8-35.3s-11-8-15-8H97c45.4-99.5,173.3-132.5,262.3-67.8,16.3,11.8,41.3,36.2,48.7,54.8Z"/>
  <path class="st1" d="M120,367c8.8-19.3,8.2-40,34.5-42,85.8-6.7,181.5,26.4,237.6-60.4,21.4-33.2,20.6-56.9,17-94.5,8.5,12.4,14.6,28.7,18.1,43.4,44.1,182.7-189.8,299-307.1,153.6Z"/>
  <path class="st1" d="M409,169c-.4-.3-.8-.6-1-1,.5.1.9.5,1,1Z"/>
</svg>
