<?xml version="1.0" encoding="UTF-8"?>
<svg xmlns="http://www.w3.org/2000/svg" version="1.1" viewBox="0 0 512 512">
  <!-- Generator: Adobe Illustrator 29.7.1, SVG Export Plug-In . SVG Version: 2.1.1 Build 8)  -->
  <defs>
    <style>
      .st0 {
        fill: #4a9846;
      }

      .st1 {
        fill: #3ca23b;
      }

      .st2 {
        fill: #46963a;
      }

      .st3 {
        fill: #34747b;
      }

      .st4 {
        fill: #4cbec5;
      }

      .st5 {
        fill: #48929e;
      }

      .st6 {
        fill: #7dbe63;
      }

      .st7 {
        fill: #236a72;
      }

      .st8 {
        fill: #58b04f;
      }

      .st9 {
        fill: #6dbfc2;
      }

      .st10 {
        fill: #236e76;
      }

      .st11 {
        fill: #6dbdb1;
      }

      .st12 {
        fill: #246c74;
      }

      .st13 {
        fill: #5ebec9;
      }

      .st14 {
        fill: #49a84d;
      }

      .st15 {
        fill: #6cb959;
      }

      .st16 {
        fill: #6abdc1;
      }

      .st17 {
        fill: #409340;
      }

      .st18 {
        fill: #53c0c8;
      }

      .st19 {
        fill: #7cbe63;
      }

      .st20 {
        fill: #35747b;
      }

      .st21 {
        fill: #51ac54;
      }

      .st22 {
        fill: #6bb64f;
      }

      .st23 {
        fill: #3bb0b7;
      }

      .st24 {
        fill: #47a74b;
      }

      .st25 {
        fill: #549e4b;
      }

      .st26 {
        fill: #6bb958;
      }

      .st27 {
        fill: #38a13a;
      }

      .st28 {
        fill: #6bb64e;
      }

      .st29 {
        fill: #31afad;
      }

      .st30 {
        fill: #428d92;
      }

      .st31 {
        fill: #35757c;
      }

      .st32 {
        fill: #d2e7cd;
      }

      .st33 {
        fill: #549d4a;
      }

      .st34 {
        fill: #359d39;
      }

      .st35 {
        fill: #48a84b;
      }

      .st36 {
        fill: #3cb5bd;
      }

      .st37 {
        fill: #47919e;
      }

      .st38 {
        fill: #7cbd68;
      }

      .st39 {
        fill: #91c08a;
      }

      .st40 {
        fill: #46918d;
      }

      .st41 {
        fill: #2faeac;
      }

      .st42 {
        fill: #5bc4cc;
      }

      .st43 {
        fill: #599da0;
      }

      .st44 {
        fill: #65b14b;
      }

      .st45 {
        fill: #1f7b78;
      }

      .st46 {
        fill: #47909d;
      }

      .st47 {
        fill: #509794;
      }

      .st48 {
        fill: #4b9692;
      }

      .st49 {
        fill: #439338;
      }

      .st50 {
        fill: #216c74;
      }

      .st51 {
        fill: #6ec1c5;
      }

      .st52 {
        fill: #74ba59;
      }

      .st53 {
        fill: #fff;
      }

      .st54 {
        fill: #64c6ce;
      }

      .st55 {
        fill: #3aafb7;
      }

      .st56 {
        fill: #539d4a;
      }

      .st57 {
        fill: #549d4b;
      }

      .st58 {
        fill: #5197a3;
      }

      .st59 {
        fill: #ddeedb;
      }

      .st60 {
        fill: #81c069;
      }

      .st61 {
        fill: #2d8480;
      }

      .st62 {
        fill: #7abc60;
      }

      .st63 {
        fill: #569e4d;
      }

      .st64 {
        fill: #4caa50;
      }

      .st65 {
        fill: #46989b;
      }

      .st66 {
        fill: #6bbec2;
      }

      .st67 {
        fill: #67c8ce;
      }

      .st68 {
        fill: #4aa1a2;
      }

      .st69 {
        fill: #80cbce;
      }

      .st70 {
        fill: #4a968f;
      }

      .st71 {
        fill: #7fbf67;
      }

      .st72 {
        fill: #4a9599;
      }

      .st73 {
        fill: #7fcacd;
      }

      .st74 {
        fill: #44bab7;
      }

      .st75 {
        fill: #429141;
      }

      .st76 {
        fill: #237077;
      }

      .st77 {
        fill: #5ca0a4;
      }

      .st78 {
        fill: #287279;
      }

      .st79 {
        fill: #6ab857;
      }

      .st80 {
        fill: #599da1;
      }

      .st81 {
        fill: #539c4a;
      }

      .st82 {
        fill: #59b14c;
      }

      .st83 {
        fill: #79bc60;
      }

      .st84 {
        fill: #449538;
      }

      .st85 {
        fill: #2fb2af;
      }

      .st86 {
        fill: #6ab858;
      }

      .st87 {
        fill: #71b855;
      }

      .st88 {
        fill: #82c472;
      }

      .st89 {
        fill: #46953b;
      }

      .st90 {
        fill: #50afa9;
      }

      .st91 {
        fill: #7dbe64;
      }

      .st92 {
        fill: #69b34c;
      }

      .st93 {
        fill: #66b259;
      }

      .st94 {
        fill: #69b34d;
      }

      .st95 {
        fill: #369d39;
      }

      .st96 {
        fill: #3c8e99;
      }

      .st97 {
        fill: #2f8580;
      }

      .st98 {
        fill: #379d3a;
      }

      .st99 {
        fill: #47929c;
      }

      .st100 {
        fill: #53ad57;
      }

      .st101 {
        fill: #42b9b6;
      }

      .st102 {
        fill: #5ec4cb;
      }

      .st103 {
        fill: #83cbce;
      }

      .st104 {
        fill: #6ab44d;
      }

      .st105 {
        fill: #71bc5f;
      }

      .st106 {
        fill: #5d9ea9;
      }

      .st107 {
        fill: #348883;
      }

      .st108 {
        fill: #47979b;
      }

      .st109 {
        fill: #1a7d79;
      }

      .st110 {
        fill: #69babe;
      }

      .st111 {
        fill: #68b24c;
      }

      .st112 {
        fill: #69babc;
      }
    </style>
  </defs>
  <g id="Swoosh">
    <path class="st88" d="M0,302.2v-3.5c8.9-5.5,8.9,9,0,3.5Z"/>
    <path class="st46" d="M217,215.7c4.7-3.4,8,4.6,5.2,8.7,1.6,3.3,2.2,10.5,0,13.8,3.5-.9,5.4,0,3.5,3.5,6.6,3.3.4,18.7-6.9,17.3-10.6,11.5-30.4,11.9-42,1.7-4.6-4-3.8-9-10-10.4-2.3-2.1-1.8-4.5,1.7-6.9-3.4.2-4.3-1.1-1.7-3.5-.2-3.4,3.2-4.3,2.1-2.4-2.3,4.3-3.9-7.5,1.3-7.9l.2-2.5c7.5-4.3,13.8-9.8,18.8-16.5-1.5-.6-1.4-1.1,0-1.7,3.3-7.6,29.2-2.7,27.8,6.9Z"/>
    <path class="st79" d="M286.4,122.4c14.2-7.7,31.8-8.2,43.4,4.3l10.4,18.2c.9,4.6-.1,5.1-3.5,1.7-.4,3.1-2.5,5.4-6.6,7.1-2.1,5.3-5.2,8.1-9,8.5,1.9,4.6,1.3,6.3-1.7,5.2.7,4.2-1.6,7.6-6.9,10.4-1.5,5.6-10.8,3.8-15.6,2.4-11.8-3.3-20-11.6-22.6-23.2-2.2-2.6-1.3-3.7,1.7-1.7l1.1-3.8c9-5.7,12-14.8,9.4-27.3-1.5-.5-1.5-1.1,0-1.7h-.1Z"/>
    <path class="st81" d="M244.8,124.1c1.5.5,1.5,1.1,0,1.7.7,10,2.4,18,5.2,24.2,3.3,1,5.4,4,6.9,6.9,6.8,6.8-4.2,8.8-10.4,5.8-5.5,6.3-22.6,10.4-30.2,7.4-7.6-3-3-1.3-2.7-4.7-.3-4.9-1.8-9-4.4-12.4l.9-4.9c-4.2-.4-5.1-1.6-1-3l-.7-5.7c-5.3,1.8-7-6.2-5.2-10.4,7-16.5,29.8-16.5,41.6-5.2h0Z"/>
    <path class="st24" d="M286.4,122.4c.2.4-.2,1.2,0,1.7l.4,4.1c-6.6,5.9-7.9,15.1-7.5,23.4l-3.3,3.6c-.7.3-1.3,1.1-1.7,1.7-1.1,6.3-17.5,7.1-17.3,0-1.9-3.2-4-4.9-6.9-6.9-3.2-6.6-4.9-14.7-5.2-24.2.2-.5-.2-1.2,0-1.7,6.3-16.2,31.9-16.9,41.6-1.7h-.1Z"/>
    <path class="st37" d="M487.7,158.6c2.2,2.5,1.2,3.5-1.7,1.7-4.1,2.3-6.9,5.2-8.7,8.7,2.5,3,1.5,3.9-1.7,1.7-11.8,2.2-25.7-1.7-26.1-15.6-2.2-3.3-3.5-7.6,0-10.4,3.9-3.3,6.5-5.7,8.7-10.4,18.5-8.7,33.3,4.8,29.5,24.2h0Z"/>
    <path class="st24" d="M387.1,191.5c3.5.4,7.1-.5,10.9.4,9.3,2.2,14.9,11.4,15.2,20.4-2.3,3-5.6,5.8-9.9,8.7-1.4,5.2-3.4,9.3-5.8,12.1-.4,1-1.5,1.6-3.5,1.7-11.6-1.7-21.2-3.2-22.6-17.3-2.1-3.3-2.1-5,0-5.2,2.2-3.1,5.6-5.9,10-8.6,1.3-4.8,3.3-8.9,5.7-12.2h0Z"/>
    <path class="st3" d="M189.2,208.8v1.7c-5.8,5.4-11.8,10.7-17.9,15.9l-2.9-.3c-3.4,3.3-14.7,3.7-15.6-1.7-.8-.2-1.2-1.3-1.7-1.7-.8-4.2,1.3-15,5.2-17.3-.7-2.6.5-5.3,4-8,1.2-5.2,3.4-7.7,6.5-7.5,0-2.9,3-4.1,8.7-3.5,9.2-9.3,23.8,17.5,13.8,22.5h-.1Z"/>
    <path class="st101" d="M300.2,198.4c3.4,3.1,5.7,6.5,6.9,10.4,1.5.5,1.5,1,0,1.7,2.5,4.2,5.4,8.1,8.7,12.1,1.5.3,1.5.9,0,1.7-1.6,7.2-10.1,13.2-17.3,13.8l-3.2-2.2c1-9.9-6.6-17.4-16.5-14.3l-2.9-2.5c-.5,1.5-1.1,1.5-1.7,0-5.4-5.1.7-15,5.7-19.6,3.7-3.5,19.6-8.6,20.4-1.1h-.1Z"/>
    <path class="st56" d="M430.5,222.7c-1.2,3.1-1.1,5.9.1,8.3l-3.7,1.9c3.3,3.2,0,9.8-3.5,12.1,1.5.4,1.4,1,0,1.7.7,2.9-2.6,2.9-5.2,1.7-2.5-1-4.5-3.4-6-7.1-4.9,1.4-8.7,1.4-11.3.2,0-.1-1.7-.7-2.4-1.9-2.2-4.2.8-4.2-4.5-4.9.5-1.7,2-1.5,3.5-1.7,1.8-3.3,4.8-6.2,9.1-9.2,1.5-5.3,3.8-9.2,6.6-11.6,9.8-.6,13.5,2.5,17.3,10.4h0Z"/>
    <path class="st5" d="M161.4,144.9c5.8.1,4.8,10,0,12.1-3.6.6-5.7,2.2-6.3,4.9l-4.2.3c0,5.6-7.3,8.1-10.4,3.5-1.3,3.1-2.9,3.4-3.5,0-2.6-3.7-5.3-7.7-6.3-12.2s1.1-4.9,1.1-5.1c.9-2.3,3.3-3.7,7-4.1-.9-3.8-.3-6.5,1.7-8,6.7-.1,18.6.3,20.9,8.7h-.1Z"/>
    <path class="st3" d="M458.1,134.5c-1.6,4.5-4.8,7.7-8.7,10.4.3,5-2.1,5.7-5.2,1.7-3.9.2-8.1,0-10.4-3.5-4.8-1.4-7-13.9-3.5-17.3,10.4-12.1,28.7-9.1,27.8,8.7h-.1Z"/>
    <path class="st43" d="M248.2,246.8c4.9.9,4.6,8.9,0,10.4-5.7,11.6-22.4,12.3-29.5,1.7,3.9-4.2,7.4-11.5,6.9-17.3,5-2.3,10.8-3,17.3-1.7,4.6-1.3,6.3,1,5.2,6.9h.1Z"/>
    <path class="st62" d="M444.3,227.9c1.6,2,2.4,5.1,2.3,9.1,3.3,1.9,5.3,4.1,6.3,6.5,1.5.2,1.4.8,0,1.7,4.7-.4,5.1,2.3,1.7,5.2-7.1,9.7-18.5,11.9-27.8,3.5-1.8.1-2.4-1.9-1.7-3.5-3.9-.8-4.5-2-1.7-3.5v-1.7c2.5-3.3,4.6-6.3,6-10.3h2.6c-.3-3,2.3-5.1,5.2-7,1.7-.2,5.4-.3,6.9,0h.1Z"/>
    <path class="st8" d="M380.1,177.7c6.3-2.5,11.2,7.3,6.9,12.1-.6.5-1.1,1.2-1.7,1.7-4.2,1.9-7.8,2.9-12.5,2.2-1.5,6-6.1,13.2-11.8,8.1-1.9,5.5-7.5,4.4-10.4,0,0-.1-1.6-1.7-1.7-1.7-3.2-1.3-4-5.5,0-6.9,5.3-5,10.3-10.3,15.1-15.8l4.1-1.4c-1.5-.5-1.5-1.1,0-1.7.5-1.5,1.1-1.5,1.7,0,3-4,10.6-1.6,10.4,3.5h0Z"/>
    <path class="st80" d="M397.5,146.6c1.5,5.3,4.3,8.6,8.1,9.9l.6,2.2c.5,8.7-3.1,12.5-10.4,15.6-5.5,1.2-12.3-2.7-15.6-6.9-1.5-.5-1.5-1,0-1.7-.3-4.9-.3-10.1,0-15.6,1.2-.6,2-3.9,6.4-4.9s6.7-.2,10.9,1.4h-.1Z"/>
    <path class="st62" d="M201.3,129.3c2.9,4.6,3.3,14.4-1.7,17.3-2.3,4.8-5.2,8.9-8.7,12.1,1.5.3,1.4.9,0,1.7-1,6.2-11.1,1.9-8.7-3.5-5.1,1.9-8.3-8.9-5.2-12.1,3.8-13.2,10.2-17.8,24.3-15.6h-.1Z"/>
    <path class="st101" d="M275.9,246.8c3.7,23.3-24.9,21-27.8,10.4s-.3-8.6,0-10.4c4.7-3.3,13.3-4.7,19.1-5.2,2.7-2,5.6-.3,8.7,5.2Z"/>
    <path class="st56" d="M347.1,144.9c2.3,3,5.8,4.7,10.4,5.2.5-1.6,1-1.5,1.7,0,2.1.6,2.6,3.4,4.1,4.6s2.7.4,2.9.6c4.5-1.7,5,0,1.7,3.5-.6,5.1-4.1,7.3-8.7,5.2-3.1,1.2-6.9,1.2-11.7,0-3.3,11.1-6.2,13.9-9.2,8.6-1.6,2.4-2.2,1.9-1.7-1.7-3.8,3.2-7-1.1-5.2-5.2-2.9-4,1.8-15.6,5.2-19,1.2-.4,3.3-1.7,3.5-1.7,1.8-.2,5.1-.2,6.9,0h.1Z"/>
    <path class="st26" d="M75.8,229.2c-.3.5-3.3.2-3,1.2.7,2.4,3.6,3.9,3.6,8.7,0,13.7-22.5,14.5-21.1-1.7s12.6-5.9,14.9-16.4c4.9-1.5,7.8,4.3,5.5,8.2h.1Z"/>
    <path class="st35" d="M177,144.9c2.4,2.1,3.9,10.2,5.2,12.1,4.8,5-4.8,15.3-10.4,10.4-.2,5.2-4.1,4.7-5.2,0-2.5.1-3.7-2.1-3.5-6.9-4.3,1.8-4.9,0-1.7-3.5-.6-3.5.8-9,0-12.1,3.8-2.3,12.4-2.9,15.6,0h0Z"/>
    <path class="st80" d="M298.5,238.1c-1.8,9.1-14.6,12.2-22.6,8.7-2.6-3-5-5.8-6.9-8.7-4.5-3.3-5.9-9.9,0-12.1-2.7-4.8,0-8.3,5.2-6.9h1.7l3.6,1.9c.7,9,8.1,13.9,16.8,13.7l2.2,3.4h0Z"/>
    <path class="st101" d="M430.5,125.8c1.5,1.5,4.2,15.7,3.5,17.3s-6.4,4.7-8.7,5.2c-2.2-.8-4-3.1-5.3-6.7-5.2-.6-8.7-2.4-10.4-5.4-4.5,2.6-6.7-1.5-3.5-5.2,5.6-1,3.9-5.2,9.9-6.5s12.7-.3,14.4,1.3h.1Z"/>
    <path class="st37" d="M328,196.7c3.7,1,5.9,5,5.2,8.7,1.6,13.5-3,20.8-17.3,19,.1-.5,0-1.1,0-1.7-4.8-1.2-5.3-11.4,0-12.1-1.5-.5-1.5-1,0-1.7,1.6-4.8,4-8.2,6.9-10.4.6-2.5,1.4-3.9,3.5-1.7.4-1.5,1-1.5,1.7,0h0Z"/>
    <path class="st97" d="M135.8,115.9c7-7,23.2,3.4,15.4,14.4s-25.5-4.3-15.4-14.4Z"/>
    <path class="st101" d="M168.4,226.1c4.4-2.2,5.3.1,1.7,3.5.3,1.4.3,10,0,10.4s-2.4,0-3.5,0l-.4,1.9c-3.9-.2-5.5.9-8.2,3.3-8.9-7.4-12.1-7.3-5.2-20.8,3.8.8,12.1-.8,15.6,1.7h0Z"/>
    <path class="st73" d="M496.3,175.9c-4,1.3-5.6,2.3-8.7,5.2-5.8-1.9-12.3-.1-12.1-10.4,2.3-.4,1.6-1.6,1.7-1.7.9-3.8,3.9-6.6,8.7-8.7.3-.7,1.6-1.3,1.7-1.7,10.2,5.3,10.8,6.9,8.7,17.3h0Z"/>
    <path class="st33" d="M470.4,234.8c5.4-3.4,9.2,5.9,3.5,8.7.4,11.9-13.4,13.7-19.1,6.9-1-1.2-1.5-3.6-1.7-5.2,3-4.7,6.4-8.7,10.4-12.1,2.2,0,5.1.3,6.9,1.7h.1Z"/>
    <path class="st80" d="M130.1,172.5c4,1.8,6.2,4.6,6.9,8.7,5.3-1.6,10.9,5.6,12.1,10.4,1.1,2.6,1.1,6,0,10.4-1.9,2.4-5.4,3.6-10.4,3.5-.5,1.5-1,1.4-1.7,0-3.3-1.1-5.5-1.2-6.9-5.2,5.6-10,4.5-15.2-3.4-15.7l-1.9-3.4c.8-6,2.9-5.5,5.2-8.7h.1Z"/>
    <path class="st63" d="M104.2,201.9c3.9-4.7,8.9-5,8.7,1.7,4.8-.9,5.1,0,1.7,3.5,1.7,1.1,1.7,3.5,0,6.9-1.1,1.8.8,4.3-4.4,5.2-9.2,1.7-15.7-3-12.7-12.6,1.4-4.6,5.1-3.6,6.6-4.7h.1Z"/>
    <path class="st85" d="M425.3,148.3l-2.3,3.7c-3.4,0-6.6,1.7-9.9,5-.5.1-1.1,0-1.7,0-2.4.9-3.2.6-1.7-1.7-1.9-2.1-3.7-5-5.2-8.7-4.3-3.4-.9-5.9,3.5-6.9-5.5-2.1-3.2-6.5,1.7-3.5,9.3,1,16.1.5,15.6,12.1h.1Z"/>
    <path class="st27" d="M371.4,212.3c-.4,1.5-1,1.5-1.7,0-8.2-7.9,5.5-20.8,15.6-20.8h1.7c1.2,11.9-3.8,19.1-15.6,20.8Z"/>
    <path class="st91" d="M364.5,212.3c1.9-4.3,3.2-4.3,5.2,0h1.7c.1,1.7-.2,3.5,0,5.2-5.7-9.3-7,1.1-12.1,2.7-8.2,2.7-13.1-2.2-12.4-10.6s3.2-5,3.6-6c4.2.2,12.3,4.6,13.8,8.7h.2,0Z"/>
    <path class="st48" d="M124.9,181.1c15.6-1.6,15.5,15.7,5.2,19-.4.1-1.1,0-1.7,0-8-1.3-9.8-14.7-3.5-19h0Z"/>
    <path class="st57" d="M48.1,245.4c9.9-2.7,14.9,14.5,1.3,13.7-9.6-.5-7.1-12.1-1.3-13.7Z"/>
    <path class="st14" d="M463.4,233c-.6,4.2-5.3,5.8-8.7,3.5-4.3,2.4-9.8-4.3-10.4-8.7,4.9-9.7,18.6-6.1,19.1,5.2h-.1Z"/>
    <path class="st9" d="M380.1,167.3c9.2-.5,8,4.9,15.6,6.9-.9.4-1.5,1.5-3.5,1.7-1.2,5.4-6.1,3.8-9.9.8l-2.3.9c-1.9-1.2-7.9-1.4-10.4-3.5-1.2-8.5,3.3-8.6,10.4-6.9h.1Z"/>
    <path class="st60" d="M418.2,248.5c1.5.4,1.5,1,0,1.7,4.6,2.2,2.9,4.8-1.7,5.2-.9-.6-16.4,6.2-17.4-8-.2-2.5,1.7-3.7,1.7-4.1,4.2-1.6,14.9,1.5,17.3,5.2h.1Z"/>
    <path class="st71" d="M484.2,233c2.7-2.3,3.7-1.4,1.7,1.7,1.3,7.5-5.6,12.9-12.1,8.7,0-3-1.1-6.8-3.5-8.7,4-3.7,9.1-5,13.8-1.7h0Z"/>
    <path class="st94" d="M418.2,248.5c-7.1.6-11.9-.5-17.3-5.2,0-.5.1-1.3,0-1.7,9.2-6.5,17.1-5.4,17.3,6.9h0Z"/>
    <path class="st110" d="M151,222.7c-.6-.4-1.3-1.1-1.7-1.7-6.1-.7-10.7-10.6-5.2-13.8.6-3.8,7.6-3.6,10.4-1.7.4-1.5,1-1.5,1.7,0,.8,7.4.2,12-5.2,17.3h0Z"/>
    <path class="st38" d="M124.9,181.1c-.9,6.4-.2,13.5,3.5,19-1.4.1-3.8.2-5.2,0-2.5,3.9-5.6,2-6.9-1.7-4.6-1.8-4.7-3.3,0-5.2,1.4-5.4,2.2-11.4,8.7-12.1Z"/>
    <path class="st45" d="M380.1,165.5c-7.2,4.2-11.3,3-12.1-3.5-1.6-.2-1.5-.8,0-1.7,3.2-2.1,5.4-5.3,6.7-9.3l3.7-1.1c.6,0,1.4.2,1.7,0,6.1,2.9,4,11.4,0,15.6h0Z"/>
    <path class="st36" d="M140.6,136.2c4.5,8.9,1.4,13.6-8.7,12.1-.6-10.7-5-11.8,8.7-12.1Z"/>
    <path class="st6" d="M30.6,262.6c12.5-4.2,12.7,14.8,1.8,11.6-5-1.4-7-9.9-1.8-11.6Z"/>
    <path class="st73" d="M392.3,175.9c1.1,8.6-.1,9-5.2,13.8,0-3.2-4.7-10.6-6.9-12.1v-5.2c4.1,2.4,7.2,3.9,12.1,3.5Z"/>
    <path class="st94" d="M203,129.3c1.1.8,4.5,8.7,5.2,10.4,3,8.3-2.6,15-8.7,6.9-.5-5.8,0-11.7,1.7-17.3.6,0,1.4-.2,1.7,0Z"/>
    <path class="st73" d="M144.1,207.1c1,4.5,2.5,10,5.2,13.8-11.6,1-12.9-5.4-12.1-15.6.5.2,1.2-.1,1.7,0,1.9-2.2,5.2-1.6,5.2,1.7h0Z"/>
    <path class="st105" d="M496.6,227.6c-7.3-4.6,4.2-15.9,9.5-8.6,4.5,6.3-4.5,11.6-9.5,8.6Z"/>
    <path class="st21" d="M83.8,223.1c6.4-6.4,13.7,5.3,8.3,9.2s-13.9-3.6-8.3-9.2Z"/>
    <path class="st90" d="M496.6,201.7c-6.1-3.8,3.6-16.7,9.5-8.6,4.6,6.2-4.6,11.6-9.5,8.6Z"/>
    <path class="st58" d="M145.6,108.3c-3.8,6.1-16.8-3.6-8.6-9.4,8.2-5.8,11.7,4.6,8.6,9.4Z"/>
    <path class="st87" d="M116.3,193.2c-.4,1.4.3,3.7,0,5.2,5.2,3.7,1.4,9.3-3.5,5.2-2.1-1.8-5.9-1.8-8.7-1.7,6.5-4.7-1.3-15.4,12.1-8.7h0Z"/>
    <path class="st28" d="M361,201.9c6.8-1.6,9,8,3.5,10.4-6.6-.9-10.5-2.5-13.8-8.7.1-.2,0-1.4,0-1.7,3.3-.4,7.4.6,10.4,0Z"/>
    <path class="st70" d="M137.1,165.5c.9-.3,2.5.3,3.5,0,4.5,2.6.4,13.3-3.5,15.6-2.2-2.1-7.4-1.5-6.9-8.7,2.7-3.7-.6-4.4,6.9-6.9Z"/>
    <path class="st71" d="M484.2,233c4.9-20.3,22.8,6.4,1.7,1.7-.2-1.1-1-1.2-1.7-1.7Z"/>
    <path class="st83" d="M123.2,200.2c5.3,9.7-2,6.9-5.2,8.7-1.5,3.1-2.6,2.4-3.5-1.7,0-.5-1.4-3.3-1.7-3.5,3.1-.8,3-2.7,3.5-5.2,2.9-1.3,5.7,1.5,6.9,1.7Z"/>
    <path class="st97" d="M378.3,150.1c-3.2,6.3-1.3,12.4-10.4,10.4-1.5-.3-1.4-.9,0-1.7-.2-.8-1.2-2.9-1.7-3.5,3.9-7.3,7.6-4.6,12.1-5.2h0Z"/>
    <path class="st103" d="M345.3,200.2c-.1,3.8-8.9,5.9-12.1,5.2s-5.8-5.2-5.2-8.7c4.5-4.6,13.5-1.1,17.3,3.5Z"/>
    <path class="st72" d="M397.5,146.6c3.6-4.6,5.8-2.2,6.9,6.9,2.4-4.1,4.6-2.9,5.2,1.7.5.2,1.1,1.3,1.7,1.7-.7,0-2,1.8-5.2,1.7-7.9-.2-9.8-4.7-8.7-12.1Z"/>
    <path class="st74" d="M425.3,148.3c-.5,10.7-5.4,7.3-12.1,8.7,3.9-11.8,4.5-6.9,12.1-8.7Z"/>
    <path class="st19" d="M359.3,150.1c-.4-.1-1.2,0-1.7,0-5.5,0-9-1.8-10.4-5.2,1-8,16.2-7.1,12.1,5.2h0Z"/>
    <path class="st78" d="M496.3,175.9c-.6,2.9,1.1,6.5-2.6,8.7-2.9.6-4.9-3.1-6-3.5-.7-6.4,3.2-8.9,8.7-5.2Z"/>
    <path class="st64" d="M22.6,288.3h-8.7c-1.4-12,10.2-11.8,8.7,0Z"/>
    <path class="st89" d="M423.5,250.3c2.1,1,3,4.6,1.7,6.9-8,6.6-8.2-1.4-8.7-1.7-.1-1.8,1.5-3.8,1.7-5.2.8-1.5,4.6-2.1,5.2,0h0Z"/>
    <path class="st77" d="M407.8,139.7c-1.5,2.4-3,3.7-3.5,6.9,4.4,1.8,4.3,5.1,0,6.9-2.7-2.3-.3-4.5-6.9-6.9.4-2.9,2.4-5.8,5.2-6.9,1.5-4.8,3.6-4.6,5.2,0h0Z"/>
    <path class="st107" d="M406.1,131l3.5,5.2c-2.3.1-1.3,2.7-1.7,3.5-1.5.3-4.1-.4-5.2,0-4.5-9.3-2.6-7.5,3.5-8.7h0Z"/>
    <path class="st61" d="M168.4,243.3c1.8,3.7,1.3,3-1.7,6.9-11.2-2.6-5-2.1-8.7-5.2,1.3-3.4,8.2-4.4,10.4-1.7h0Z"/>
    <path class="st102" d="M449.5,144.9c0,.5,1.6,2.3,1.4,4.3s-1.4,4.7-1.4,6.1c-2.3-3.5-6.6-3.4-5.2-8.7.5,0,3.9-1.3,5.2-1.7Z"/>
    <path class="st54" d="M286.4,250.3c.7.7,1.6,9.2-4.3,6.9-5.9-2.2.3-10.9,4.3-6.9Z"/>
    <rect class="st42" x="137.1" y="84.3" width="5.2" height="6.9"/>
    <path class="st68" d="M348.8,193.2c-.3,2.2.2,4.7,0,6.9-.9-.3-2.3.2-3.5,0-5.5-2.2-6.7-4.6-3.5-6.9,2.2-4.5,4.9-4.6,6.9,0Z"/>
    <path class="st52" d="M430.5,222.7c4-.4,6.8,1.3,6.9,5.2-4.4,9.1-11,2-6.9-5.2Z"/>
    <path class="st47" d="M510.3,210.5c-.6.6-6.5,1.1-5.2-2.5,1.9-5.3,7,.9,5.2,2.5Z"/>
    <rect class="st100" x="506.8" y="214" width="5.2" height="3.5"/>
    <path class="st39" d="M118,208.8c-1.2.7-2.5,3.7-3.5,5.2-.3-2.1.4-4.9,0-6.9l3.5,1.7h0Z"/>
    <path class="st32" d="M427,253.7c0,1.7-.4,2.4-1.7,3.5l-1.7-6.9c.5-1.2,1.1-1.2,1.7,0,.1.6,1.6,1.8,1.7,3.5Z"/>
    <path class="st69" d="M234.3,217.5c-.6,1.4-1.1,1.4-1.7,0-2.2,1.9-5.2,3.7-8.7,5.2,1.4.5,1.4,1.1,0,1.7-.5,1.5-1.1,1.5-1.7,0,0-.5-4.9-8.2-5.2-8.7.3-13.3,18.5-11.6,17.3,1.7h0Z"/>
    <path class="st7" d="M189.2,210.5c-1.4,11.9-8.8,15.2-19.1,19,0-.2-1.6-3.4-1.7-3.5,5.9-6.1,11.2-15.7,20.9-15.6h0Z"/>
    <path class="st108" d="M241.3,236.4c2.6-2.2,3.6-1.2,1.7,1.7,1.5.5,1.5,1,0,1.7-4.4,4.5-12.1,4.4-17.3,1.7s-3.2-2.7-3.5-3.5c-.5-3.7.6-4.2,3.5-1.7.2-5.7,15.1-5.7,15.6,0h0Z"/>
    <path class="st55" d="M225.6,236.4c-.6,0-2.1,1.8-3.5,1.7-2.5-5.6.4-10.9,0-13.8h1.7c5.6.6,7.8,10.7,1.7,12.1Z"/>
    <path class="st109" d="M166.6,239.9c.5,1.1,1.2,2.3,1.7,3.5l-10.4,1.7c-.3-6,4.5-4.9,8.7-5.2Z"/>
    <path class="st27" d="M275.9,155.2c-1-11.4.3-24,10.4-31.2.3.5,2.7.7,3.5,4.3,2.3,12.9-1.9,22.3-13.8,26.9h0Z"/>
    <path class="st92" d="M321.1,162.1c4.8-.5,8.2.6,10.4,3.5,1.1.3,4.2,3.9,5.2,5.2,4,6.4-6.4,14-12.1,12.1-.5,1.4-1.1,1.4-1.7,0-5.2,0-5.7-3.7-1.7-6.9-4.9-1.3-3.6-5.2-1.7-8.7.5-.9.1-2.6,1.7-5.2h0Z"/>
    <path class="st84" d="M336.7,146.6c1.1,7.4-1.7,12.8-5.2,19-4.5-1.1-11.9,2.9-10.4-3.5,5.8-9,3.6-11.6,15.6-15.6h0Z"/>
    <path class="st22" d="M321.1,175.9c-1.2,4.7-6,6.3-8.7,1.7.7-7.4,5.7-7.9,6.9-10.4,3,1.5,1.4,6,1.7,8.7Z"/>
    <path class="st95" d="M249.9,150.1c-.2-.2-2.5.5-3.2-.3-5.3-7.8-4.4-15.6-2-23.9,7.4,3.2,4.3,23.3,5.2,24.2Z"/>
    <path class="st49" d="M213.5,165.5c-.5,0-1.5-.1-1.7,0-4.8,3.9-10.7-4.5-6.9-8.7-3.8-3,.3-10.4,5.2-8.7,1.1,3.2,10,8.7,3.5,17.3Z"/>
    <path class="st44" d="M210,148.3l-5.2,8.7c-.4,1.4-1,1.4-1.7,0-6,.8-9.1-7.9-3.5-10.4,2.6-.4,5.9.3,8.7,0v-6.9c1.9,4.4,1,6.6,1.7,8.7Z"/>
    <path class="st98" d="M256.9,156.9c-6.3-2.1-5.8-5.7-6.9-6.9,1,1,6.9-2.7,6.9,6.9Z"/>
    <path class="st96" d="M485.9,160.4c-2.3,5.4-3.4,6.3-8.7,8.7-3.7-6,3-8.9,8.7-8.7Z"/>
    <path class="st12" d="M449.5,144.9c.2-3.2,5.6-9,8.7-10.4-.5,9.3-1.8,8.2-8.7,10.4Z"/>
    <path class="st34" d="M413,212.3c.3,10.5-5.1,18.9-15.6,20.8-1.7-10.7,4.4-20.1,15.6-20.8Z"/>
    <path class="st30" d="M166.6,189.8c-1.2,1.2-.9,10.9-10.4,15.6-9.5,4.7-1.2-.2-1.7,0-2.5.1-5.4-.5-5.2-3.5-5.4-1.4-2.9-7.2,0-10.4-2.2-5.3,9.2-12.8,13.8-10.4,1.7,1.4,4.3,5.3,3.5,8.7Z"/>
    <path class="st23" d="M168.4,177.7c1.8,2.1,3.6,4.5,5.2,6.9,0,.1,1.6,1.6,1.7,1.7-1.4,2.7-8.3,3.2-8.7,3.5-3.9-1.1-3.8-5.3-3.5-8.7-3.3-3.3-3-3.9,1.7-3.5.6-4.8,1.9-4.5,3.5,0Z"/>
    <path class="st29" d="M298.5,238.1c-12.5,1-22.6-5.9-22.6-19,13.3-6,25.4,5.1,22.6,19Z"/>
    <path class="st7" d="M322.8,196.7c1.4.3,1.3.9,0,1.7-1,5.5,1.1,9-6.9,10.4-1.9,1.6-6.5,1.4-8.7,0-5.7-.9-6.9-5.1-6.9-10.4,1-3.1,3.6-3.1,7.6,0,6.5-5.5,11.5-6.1,15-1.7h-.1Z"/>
    <path class="st41" d="M315.9,210.5c-.3,3.9.5,8.3,0,12.1-7.8.5-9.6-5.3-8.7-12.1,1.7-1.3,6.5-1.1,8.7,0Z"/>
    <path class="st76" d="M315.9,208.8v1.7h-8.7v-1.7c1.9.3,6.8.3,8.7,0Z"/>
    <path class="st111" d="M430.5,222.7c1.1,2.3,1.5,6.7,1.7,6.9.9.9,4.3-1.6,5.2-1.7.2,8.2-4.6,6-5.2,6.9-1.7,4.7-5.5,3.2-5.2-1.7.7-2.5-1.6-9.8,3.5-10.4h0Z"/>
    <path class="st2" d="M432.2,234.8c-1.9,2.9-1.5,10.5-8.7,10.4.1-5.1,2.2-7.8,3.5-12.1l5.2,1.7h0Z"/>
    <path class="st59" d="M425.3,250.3h-6.9v-1.7c1.8-.2,3.6-.8,5.2-1.7.2,1.1,1.5,2.4,1.7,3.5h0Z"/>
    <path class="st40" d="M159.6,169c3.8-1.6,8.6,5.6,5.2,8.7-.5.3-1,2.7-1.7,3.5-4.3,3.9-11.5,7.7-13.8,10.4-6-1.5-8.2-6.6-12.1-10.4-1.1-5.8,2.1-10.3,3.5-15.6,2.3-.7,9.5-2.4,10.4-3.5,4.1,2,7,4.4,8.7,6.9Z"/>
    <path class="st16" d="M161.4,156.9c.2,1.1,1.4,2.3,1.7,3.5,2.1,5.1,1.5,7.3-1.7,6.9,2.1,2.6,1.2,3.6-1.7,1.7-3.5-1.3-9.8,2.2-8.7-6.9,2.1-2.2,1.8-10.7,10.4-5.2h0Z"/>
    <path class="st20" d="M269,226.1c-.8,3.3.6,8.5,0,12.1,2.2,2.6,1.1,3.7-1.7,1.7-4.7-1.8-12.7.5-16.7,6.7l-2.3.2c-1.2-.4-3.8-5.1-5.2-6.9s.3-1.4,0-1.7c.3-4.7.8-9.3,1.7-13.8-1.6-.5-1.6-1.1,0-1.7,3.6-6.2,21.3-4.5,24.3,3.5h-.1Z"/>
    <path class="st1" d="M454.7,236.4c3.2,3.2,2.7,5.7-1.7,6.9-9.2-.4-12.8-7.3-8.7-15.6,4.6,1,7.5,5.3,10.4,8.7Z"/>
    <path class="st95" d="M463.4,233c.3,8.6-3.7,9.2-10.4,12.1v-1.7c0-2.4.2-4.9,1.7-6.9s5.7-3.4,8.7-3.5Z"/>
    <path class="st86" d="M385.2,191.5c-7,5.9-15.7,8.8-15.6,20.8-1.6,0-3.7.2-5.2,0,.6-4.1-.8-7.3-3.5-10.4,7.3-1.4,9.5-9,8.7-15.6,5.5,5.1,8.9,4.6,15.6,5.2h0Z"/>
    <path class="st82" d="M367.9,175.9c-1.7,7.3-11.6,16-19.1,17.3-7.2-4.8,4.3-23.4,12.1-17.3.5-5.2,5.2-4.7,6.9,0h.1Z"/>
    <path class="st75" d="M367.9,160.4v1.7c5.5,4.5,4,6.8,0,12.1,0,.6.1,1.2,0,1.7-2.1.3-5-.4-6.9,0-7.7,3.8-9-11.8-1.7-12.1.8-2.4,6.5-3.8,8.7-5.2.1.5,0,1.1,0,1.7h0Z"/>
    <path class="st99" d="M380.1,165.5v1.7c-5.6.3-7.7,2-10.4,6.9h-1.7c.4-3.3.2-8.7,0-12.1,3.5,3.2,7.4,4.1,12.1,3.5h0Z"/>
    <path class="st15" d="M182.2,156.9c.3.4,7.5,4.8,8.7,3.5,4.1.7,5.7,4.9,5.2,8.7-4.2,1.5-3.4,7.7-6.9,9.6-8.6,4.4-18-1.5-17.4-11.3,5.3-1.3,8.1-5.9,10.4-10.4h.1Z"/>
    <path class="st25" d="M204.8,156.9c.9.9,3.7,7,6.9,8.7-5.2,3.2-4.2,8.8-15.6,3.5-11.4-5.3-4.9-4.9-5.2-8.7s0-1.2,0-1.7c2.4-3.9,9.6-6.3,12.1-1.7h1.7Z"/>
    <path class="st104" d="M199.5,146.6c.3,4.2,1.2,6.9,3.5,10.4-3.4.4-7.7,3.2-12.1,1.7.5-6.4,1-10.8,8.7-12.1Z"/>
    <path class="st50" d="M248.2,246.8c1.1-6.8,6.6-9.9,13-10.5,6.4-.6,7.2-1.3,6.1,3.6,1.5.5,1.5,1.1,0,1.7-3.8,5.4-13.5,7-19.1,5.2h0Z"/>
    <path class="st65" d="M275.9,246.8c-3-1.3-4.8-5.3-8.7-5.2.2-.3-.2-1.2,0-1.7s1.6-1.2,1.7-1.7c3.8,2.1,6.2,4.3,6.9,8.7h0Z"/>
    <path class="st17" d="M359.3,163.8c-1,2.9-2.3,11.9,1.7,12.1-7.6,1.6-11.3,10.3-12.1,17.3-1.9.3-4.8,0-6.9,0-1.1,4.6-6.9,2.9-6.9-1.7-1.5-.5-1.5-1,0-1.7,0-6.6,1.2-12.4,3.5-17.3,6.2,1,1.9-5.7,5-9.7s11.4-1.8,15.8,1h0Z"/>
    <path class="st44" d="M338.4,172.5c3,6.1,2,13.4-3.5,17.3-5.7,3.4-13.8,0-10.4-6.9,3.3-4.5,12-7,12.1-12.1.5.6,1.4,1.1,1.7,1.7Z"/>
    <path class="st94" d="M357.6,150.1c-3.4.4-11.8,5.4-10.4-5.2,3.6.4,9,1.6,10.4,5.2Z"/>
    <path class="st11" d="M166.6,167.3c.1.5-.1,1.1,0,1.7-1,4.2-4.6,1.6-5.2-1.7,1.3-2.1,1.8-4.4,1.7-6.9.4,1.4,2.6,4.3,3.5,6.9h0Z"/>
    <path class="st112" d="M335,191.5c2,0,4.9,1.7,6.9,1.7.5,1.9,3.5,5.5,3.5,6.9-6.5-1-11.5-2.4-17.3-3.5-5.8-1-1.2,0-1.7,0-2.6,0-2.3-2.4,0-3.5-1-4,1.9-4.6,8.7-1.7h0Z"/>
    <path class="st106" d="M326.3,193.2v3.5c-.9,0-2.3,1.4-3.5,1.7.1-.5,0-1.1,0-1.7-1.5-.5-1.5-1,0-1.7-3.5-4.4.8-6.8,3.5-1.7Z"/>
    <path class="st66" d="M149.3,201.9c2.6.3,4.4.7,5.2,3.5-4.4,1.4-5.1,2-10.4,1.7s-3.8-1.3-5.2-1.7c1.3-4.2,6.6-3.9,10.4-3.5Z"/>
    <path class="st13" d="M404.4,146.6h6.9l-1.7,8.7c-1.5-.6-3.9-.6-5.2-1.7.2-2.2-.3-4.8,0-6.9h0Z"/>
    <path class="st4" d="M244.8,222.7c-.1.2,0,1.2,0,1.7,0,5.6-1.2,9.7-3.5,12.1-2.4-.6-12.8-.4-15.6,0,1.1-4.1-1.7-8.8-1.7-12.1s-.1-1.2,0-1.7c3-1.6,5.8-3.4,8.7-5.2h1.7c5.3.5,6.4,1.9,10.4,5.2Z"/>
    <path class="st31" d="M314.2,186.3c2.5-2.1,3.5-1.2,1.7,1.7,5.1-1.6,9,1.3,6.9,6.9-.2.3,0,1.1,0,1.7-5.8-2.1-11.1,5-14.8,5.1s-5.6-3-7.8-3.4c0-8.9,5.4-12.7,13.8-12.1h.1Z"/>
    <path class="st83" d="M321.1,175.9c.3,2.3,1.3,4.6,1.7,6.9,2.4,5.1-1.9,9.7-6.9,5.2-.5-.6-1.4-1.1-1.7-1.7-1.4-3-2-5.3-1.7-8.7,2.6-.2,5.7-1.9,8.7-1.7h0Z"/>
    <path class="st0" d="M166.6,169c.6,2.9,1.8,5.6,1.7,8.7-.8,0-3.1-.2-3.5,0,.4-1.9-4.7-8.5-5.2-8.7.4-.6,1.3-1.1,1.7-1.7l5.2,1.7Z"/>
    <path class="st18" d="M173.6,184.6h-6.9c-1-2.5,1.7-5.6,1.7-6.9,7.1.8,3.9,4.5,5.2,6.9Z"/>
    <path class="st67" d="M194.4,207.1c-.7-.7-1.6-9.1,4.3-6.9s-1.4,9.8-4.3,6.9Z"/>
    <path class="st51" d="M232.5,217.5c1.1,5-5,4.7-8.7,5.2,1.1-4.4,4.9-4.9,8.7-5.2Z"/>
    <path class="st10" d="M243,238.1c-.4-.4-1.6-1.7-1.7-1.7,0-4.4-1.5-10.4,3.5-12.1.6,4.2,5.2,10.5-1.7,13.8Z"/>
    <path class="st93" d="M324.6,182.9c2.4,1.6,4.3,8.6,10.4,6.9v1.7c-2.6,0-6.2.8-8.7,1.7s-2.1-.5-3.5,1.7c-1.9-2.9-4.8-4.1-6.9-6.9,4.3,1.3,3.6-4.3,6.9-5.2s1.5-.1,1.7,0h0Z"/>
  </g>
  <g id="Runalyze">
    <g>
      <path class="st53" d="M2.6,373.7l12.6-63h25.6c7.9,0,13.9,1.7,18.2,5.2,4.3,3.5,6.4,8.2,6.4,14.3s-1.2,9.9-3.7,13.8c-2.5,3.9-6,6.9-10.6,9-4.6,2.1-10,3.1-16.2,3.1H14.4l7.6-6.4-4.8,24H2.6ZM21.7,351.4l-5-6.9h18.8c4.8,0,8.5-1.1,11.2-3.3,2.7-2.2,4-5.4,4-9.5s-1-5.4-3.1-6.9c-2-1.5-4.9-2.2-8.7-2.2h-17.7l7.6-7.1-7.2,35.9ZM43.2,373.7l-12.9-22.9h15.2l13,22.9h-15.4Z"/>
      <path class="st53" d="M97.6,374.8c-6.1,0-11.2-1.2-15.3-3.6-4.1-2.4-6.9-5.7-8.6-10-1.7-4.3-1.9-9.4-.8-15.3l7.1-35.2h14.6l-7,35c-1.1,5.6-.7,9.8,1.4,12.6,2.1,2.8,5.5,4.1,10.3,4.1s7.9-1.3,10.6-4c2.7-2.6,4.6-6.9,5.7-12.8l7-35h14.3l-7.1,35.9c-1.9,9.3-5.5,16.3-10.8,21.1-5.4,4.7-12.5,7.1-21.4,7.1Z"/>
      <path class="st53" d="M138,373.7l12.6-63h12.1l27.1,45.6-4.8-.3,9.1-45.4h14.3l-12.6,63h-12l-27.2-45.6,4.9.3-9.1,45.4h-14.4Z"/>
      <path class="st53" d="M202.5,373.7l40.7-63h14.4l15.6,63h-14.6l-12.3-55.8h5.8l-34,55.8h-15.6ZM219.2,360.2l6-11.1h32.5l1.7,11.1h-40.2Z"/>
      <path class="st53" d="M279.7,373.7l12.6-63h14.6l-10.2,51.1h31.5l-2.3,11.9h-46.2Z"/>
      <path class="st53" d="M344,373.7l5.2-25.9,1.6,9.2-18.5-46.3h14.6l14.1,35.4h-8.8c0,0,28.4-35.4,28.4-35.4h15.1l-36.9,46.3,5-9.3-5.2,25.9h-14.7Z"/>
      <path class="st53" d="M386,373.7l1.9-9.4,47.9-47,1.3,5.3h-39.9l2.4-11.9h52.9l-1.9,9.4-47.8,47-1.4-5.3h42l-2.3,11.9h-55.2Z"/>
      <path class="st53" d="M467.4,362h34.3l-2.2,11.7h-48.9l12.6-63h47.5l-2.2,11.7h-33.1l-7.9,39.6ZM471.5,336h30.3l-2.2,11.4h-30.3l2.2-11.4Z"/>
    </g>
  </g>
</svg>
