<?xml version="1.0" encoding="UTF-8"?>
<svg id="Layer_1" xmlns="http://www.w3.org/2000/svg" xmlns:svg="http://www.w3.org/2000/svg" xmlns:sodipodi="http://sodipodi.sourceforge.net/DTD/sodipodi-0.dtd" xmlns:rdf="http://www.w3.org/1999/02/22-rdf-syntax-ns#" xmlns:inkscape="http://www.inkscape.org/namespaces/inkscape" xmlns:dc="http://purl.org/dc/elements/1.1/" xmlns:cc="http://creativecommons.org/ns#" version="1.1" viewBox="0 0 1841.4 593.1">
  <!-- Generator: Adobe Illustrator 29.7.1, SVG Export Plug-In . SVG Version: 2.1.1 Build 8)  -->
  <defs>
    <style>
      .st0 {
        fill: #ffffff;
      }

      .st0, .st1 {
        fill-rule: evenodd;
      }

      .st1 {
        fill: #e1001a;
      }
    </style>
  </defs>
  <g id="svg10" inkscape:version="0.92.4 (5da689c313, 2019-01-14)" sodipodi:docname="suunto-logo.4d82cce.svg">
    <sodipodi:namedview id="namedview12" bordercolor="#666666" borderopacity="1" fit-margin-bottom="0" fit-margin-left="0" fit-margin-right="0" fit-margin-top="0" gridtolerance="10" guidetolerance="10" inkscape:current-layer="svg10" inkscape:cx="1392.9741" inkscape:cy="404.4558" inkscape:pageopacity="0" inkscape:pageshadow="2" inkscape:window-height="1001" inkscape:window-maximized="1" inkscape:window-width="1920" inkscape:window-x="-9" inkscape:window-y="-9" inkscape:zoom="0.25" objecttolerance="10" pagecolor="#ffffff" showgrid="false"/>
    <path id="path4" class="st1" d="M926.7,0l-98.9,137.4h198.8L926.7,0Z" inkscape:connector-curvature="0"/>
    <path id="path6" class="st0" d="M1836,397.1c-9.4-35.5-31.2-62.3-58.8-80.5-28.5-18.5-62-27.9-96-26.8-34.9.9-71.3,12.3-98.7,32.8-27.4,20.6-45.8,50.4-53.9,83.4-8.2,33-6.1,69.3,7.6,99.7s38.9,55.1,65.6,69.2c26.8,14.1,55.2,17.8,80.8,18,25.6.3,48.4-3,74-15.6,25.7-12.6,54.4-34.7,70.2-67.8,15.8-33,18.7-77,9.2-112.5M1776,476.3c-5.8,19.2-16.5,35.9-33.1,48-16.7,12.1-39.3,19.5-60.3,19.8-21,.5-40.4-6.1-56-17.6-16.1-12.1-27.8-29.1-33.3-48.5-6.1-20.3-6.4-44.4-2.3-65.6,4.1-21.1,12.6-39.4,28.7-53.1,16-13.7,39.6-22.9,62.6-23.1,22.9-.1,45.1,8,62.6,22.8,16.8,14.4,27.6,34.5,32.7,55.4s4.2,42.7-1.6,61.9M899.3,299.3c-.7-.8-1.6-1.3-2.7-1.5h-51.9c-1.2.3-2.3.8-3.3,1.5-.5.6-1,1.3-1.2,2-.4,1.3-.6,2.7-.6,4v176.7c0,.4-.6,6.2-1.1,10.4-.4,4.1-.7,6.8-1.4,10.1-.9,4.1-2.4,8.1-4.4,11.7-2.6,4.1-5.8,7.7-9.5,10.7-3.3,2.8-6.8,5.2-10.5,7.3-4.5,2.5-9.7,5.1-15.4,6.8-5.9,1.8-12.3,2.8-17.9,3.3-5.1.4-9.6.5-14.6.2-5.3-.3-11.2-1-16.6-2.2-10-2.3-19.4-6.9-27.3-13.5-5.2-4.9-9.3-10.9-11.7-17.6-1.7-4.5-3.7-11.2-3.7-15.2v-188.6c0-1.2-.2-2.5-.6-3.7,0-.6-.4-1.2-.8-1.8-.3-.4-.7-.7-1.2-1s-1-.4-1.5-.5h-52c-.6.2-1.3.4-1.9.7-.5.2-1,.5-1.4.8-.6.7-1,1.5-1.3,2.3-.4,1.2-.5,2.5-.6,3.8v192.5c0,4.8.4,9.3,1.2,14.2.9,5.3,2.3,11,4,16.1,1.6,4.9,3.5,9.2,6.3,13.5,3.1,4.8,7.2,9.6,11.8,14.1,9.6,9.4,20.8,16.9,33.1,22.1,6.1,2.7,12.3,5,18.9,6.9,7.1,2,14.6,3.6,22.1,4.9,7.3,1.3,14.5,2.1,21.2,2.3,6.4.2,12.4-.3,19-1.1,7.2-.9,15.2-2.2,21.8-3.4,11.4-2,22.6-5.2,33.3-9.5,7.2-2.8,14.2-6.2,20.7-10.4,6.2-4,11.7-8.8,16.9-14.1,5.1-5.1,9.9-10.6,13.5-15.8,3.1-4.5,5.3-8.8,6.9-14.1,1.8-5.8,2.8-13,3.5-18.9,1-10.7,1.8-21.3,2.3-32v-168.6c0-.8-.3-2.5-.6-3.7-.2-.6-.4-1.2-.8-1.8M1503.7,297.7h-241.8c-1.5,0-3.9,0-5.5,1.3-.9.9-1.5,2-1.9,3.2v36c0,1.8.4,3.8,1.7,4.7,1.3.9,3.5.9,5.7.9h79.1c3,0,7.1.4,9.3,3.3,1.4,2.3,2.2,5,2.3,7.7v225.3c0,1.4-.3,3.9,1,5,1.1.8,3.4.7,3.4.7h49.8c1.5,0,3.3-.2,4.3-1.8.8-1.5,1.2-3.1,1.3-4.8v-226.2c0-.3.2-4.7,2.3-7.1,2.5-2.9,7.8-2.7,10.9-2.7h76.4c8.1-.3,8.9-2.8,8.9-6.8v-33.6c0-3.5-1.4-5.1-7.4-5.1M1209.9,301c-.2-1-.8-1.8-1.7-2.3-1-.7-2.2-1.1-3.5-1.2h-47.6c-1.6,0-3.3-.1-4.6.8-.9.6-1.6,1.5-1.9,2.5-.7,1.8-.5,3.9-.5,5.2v172.6c-.2,2.3-.5,3.1-1.1,3.6-.3.3-.7.5-1.1.5-.6.1-1.2,0-1.8-.4-1-.7-1.9-1.6-2.7-2.5l-130.7-177.8c-.5-.2-1.4-1.9-3.5-3-2.2-1-4.7-1.5-7.1-1.3h-40.3c-1.2.2-2.5,0-3.9.5-1.3.5-2.4,1.4-3.3,2.5-1.5,2-1.1,4.2-1.4,7.3v270c0,1.7-.3,4,1.1,5.6,1.2,1.4,3.8,2.1,3.8,2.1h46c2.2,0,5.6.4,7.4-1.6,1.1-1.5,1.8-3.3,2.1-5.1v-179.6c0-1,0-3.8.5-5.2.3-.9.8-1.3,1.3-1.4.5-.2,1.1-.1,1.9.7,1.3,1.1,3.1,3.8,3,3.9l133.6,183.9c.8,1,2.3,3.2,3.9,3.8,1.4.5,2.6.6,2.7.6h44c1,0,1.9-.3,2.8-.6.9-.4,1.4-.4,2.3-1.8.6-1.3,1-2.7,1-4.2v-274.5c0-1.2-.2-2.3-.4-3.5M277.2,475.4c-.9-3.3-2.2-6.6-3.7-9.6-1.6-3-3.5-5.9-5.6-8.6-1.7-2.5-3.5-4.8-5.6-7-2.5-2.6-5.2-5-8.1-7.2-6.4-4.8-13.2-9-20.5-12.4-3.5-1.6-7-3.1-10.6-4.5-4.3-1.7-8.8-3.1-13.3-4.2-5.9-1.5-11.9-2.8-17.9-3.9-6.7-1.3-13.4-2.5-20.1-3.6-7-1.2-14-2.4-21-3.5s-13.9-2.1-19.7-3.1c-5.9-1-10.7-2-15.5-3.1-4.5-.9-8.9-1.9-13.3-3.1-6.3-1.8-12.1-4.7-17.3-8.6-1.3-.9-2.4-2.1-3.4-3.4-2.1-3.2-3.4-6.9-4-10.7-.6-4.8-.2-9.7,1.3-14.3.6-2,1.4-3.8,2.6-5.5s2.7-3.3,4.4-5c1.8-1.6,3.8-3.2,5.9-4.6,2.2-1.5,4.6-2.8,7-4,6.8-3.5,14.2-6,21.7-7.3,4.3-.8,9.2-1.4,13.5-1.7,4.2-.3,8.3-.3,12.5,0,4.5.3,9.9.8,14.4,1.6,4.5.8,8.1,1.7,12,3s8.1,3,11.9,4.5c3.8,1.6,7,3.1,10.5,5.2,6.6,4,12.6,8.8,17.9,14.4,2,2.1,3.7,4,4.9,5.2.7.8,1.5,1.5,2.4,2,.7.4,1.4.6,2.2.7,1.2,0,2.4-.2,3.5-.8l39.2-27.5c.7-.6,1.3-1.3,1.8-2.1.4-.8.6-1.6,0-2.8-2-3.9-11.9-12.5-20.9-18.9-7.6-5.4-15.6-10.1-24-14.1-6-3-12.2-5.6-18.6-7.6-9.2-2.9-18.6-5-28.2-6.5-9-1.5-18-2.1-27.1-2-10.4.3-20.7,1-31,2.3-8.7,1-16.2,2-24.3,3.9-9.5,2.3-18.7,5.4-27.6,9.3-9.7,4.2-19.3,9.6-26.8,16-5.9,5.2-11,11.1-15.2,17.8-2.7,4.1-5.1,8.5-7.1,13-1.5,3.2-2.6,6.6-3.4,10.1-.8,4-1.3,8.7-1.7,11.9-.3,2.4-.6,4-.6,6.7,0,4.5.7,12,2,17.8,1.1,5,2.7,8.6,5.1,12.7,2.9,5,7,10.8,12.5,16.1,6.1,6,13.9,11.3,21.1,14.9,6.4,3.3,12.2,5.3,19.1,7.4,8.3,2.5,18.1,5.1,28.5,7.1,11,2,22.5,3.4,33,4.7,9.2,1.2,17.6,2.4,25.6,3.7,7.3,1.2,14.4,2.3,20.6,4,5.2,1.4,9.9,3,13.8,4.8,3.4,1.5,6.3,3,9.3,5.4,3.5,2.6,7.2,6.3,9.3,10.4,1.9,3.8,2.5,7.9,2.8,11.9.3,3.6.1,7-.6,10.4-.7,3.8-2.2,7.4-4.5,10.5-3.6,4.8-8.1,8.8-13.2,11.9-5.1,3.1-10.3,5-16.3,6.5-6.6,1.7-14.1,3-20.3,3.7-5.3.6-9.5.8-15,.6-6.3-.3-14.1-1.1-20-1.7-4.4-.4-8.9-1.1-13.2-2-6.4-1.3-12.7-3.1-18.8-5.3-4.4-1.6-7.5-3.3-11-5.1-4.1-2.1-8.8-4.2-14.1-8.5-6.1-4.8-13.1-12.4-15.4-14.6-.4-.4-.8-.8-1.3-1s-1.1-.3-1.7-.4h-2.4L.8,537c-.6.8-.9,1.8-.8,2.8.1.8.4,1.4,2,3.3,1.5,1.8,4.4,4.8,7,7.5,2.5,2.6,4.9,4.8,8.1,7.5,3.3,2.7,7.5,5.8,12.6,8.8,5.1,3,11,6.1,17.5,8.9,14.1,6,28.8,10.6,43.9,13.6,7.7,1.4,15.5,2.2,23.3,2.8s15.8,1,23,.9c15-.4,30-2.1,44.8-5,7.6-1.5,15.2-3.5,22.6-5.9,7.2-2.3,13.9-5,20.2-7.9,6.2-3,11.9-6.4,16.3-9.2,4.4-2.8,7.6-5.1,11-8.2,6.5-6.2,12.4-13,17.4-20.4,2.1-3.3,3.8-6.8,5.3-10.4,2.7-6.8,4.3-14,4.7-21.3.6-6.5.5-13-.3-19.4-.4-3.4-1.1-6.7-2-9.9M589.4,299.4c-.7-.8-1.6-1.4-2.7-1.5h-51.9c-.7.2-1.3.4-1.9.7-.5.2-1,.5-1.4.8-.5.6-1,1.3-1.2,2-.4,1.3-.6,2.7-.7,4v176.7c0,.4-.6,6.2-1.1,10.4-.4,4.1-.7,6.8-1.4,10.1-.9,4.1-2.4,8.1-4.4,11.7-2.6,4.1-5.8,7.7-9.5,10.7-3.3,2.8-6.6,5.1-10.5,7.3-4.9,2.8-10,5.1-15.4,6.8-5.9,1.8-12.3,2.8-17.9,3.3-5.1.4-9.6.5-14.6.2-5.6-.3-11.2-1-16.6-2.2-5-1.1-9.8-2.8-14.3-5.1-4.7-2.2-9-5.1-12.9-8.5-5.2-4.9-9.2-10.9-11.7-17.6-1.7-4.5-3.7-11.2-3.7-15.2v-188.6c0-.8-.3-2.5-.6-3.7-.2-.6-.5-1.2-.9-1.8-.3-.4-.7-.7-1.2-1s-1-.4-1.5-.5h-51.9c-.6.2-1.1.2-1.7.5-.6.2-1.2.6-1.6,1-.6.7-1.1,1.5-1.3,2.4-.4,1.2-.5,2.5-.6,3.8v192.5c0,4.8.4,9.3,1.2,14.2.9,5.3,2.3,11,4,16.1,1.6,4.9,3.5,9.2,6.3,13.5,3,4.8,7.2,9.6,11.7,14.1,9.5,9.4,20.7,16.9,33,22.1,6.1,2.7,12.3,5,18.9,6.9,7.1,2,14.7,3.6,22.1,4.9,7.3,1.3,14.5,2.1,21.2,2.3,6.4.2,12.3-.3,18.9-1.1,7.2-.9,15.2-2.2,21.9-3.4,11.4-2.1,22.6-5.2,33.3-9.5,7-2.8,14.2-6.2,20.7-10.4,6.2-4,11.7-8.8,16.9-14.1,5.1-5.1,9.9-10.6,13.5-15.8,3.1-4.5,5.3-8.8,6.9-14.1,1.8-5.8,2.8-13,3.5-18.9.7-5.6,1-10.3,1.4-16.9.4-6.3.9-14.4.9-15.1v-168.6c0-.8-.3-2.5-.6-3.7,0-.6-.4-1.2-.8-1.8" inkscape:connector-curvature="0"/>
  </g>
</svg>
