<?xml version="1.0" encoding="UTF-8"?>
<svg id="Layer_1" xmlns="http://www.w3.org/2000/svg" version="1.1" viewBox="0 0 480 480">
  <!-- Generator: Adobe Illustrator 29.7.1, SVG Export Plug-In . SVG Version: 2.1.1 Build 8)  -->
  <defs>
    <style>
      .st0 {
        fill: #3075fb;
      }

      .st1 {
        display: none;
        fill: #010f31;
      }

      .st2 {
        fill: #3074f8;
      }
    </style>
  </defs>
  <path class="st1" d="M396,0c19.8,3.7,37.4,10.5,52.5,24,17.9,16,26.8,35.7,31.5,59v315c-4.5,18.6-10.3,34.8-23,49.5s-36.8,28.3-61,32.5H82c-19.1-4.6-35.7-10.7-50.5-24-17.8-15.9-26.4-35-31.5-58V82c2.5-7,3.7-14.3,6.2-21.3C16.3,33.4,40.2,11.5,68.2,3.7l14.8-3.7h313ZM264,139h-35.5l-63.5,145h35.5l63.5-145ZM304,169l-38.6,87c-.5,1.7-.8,1.7.6,3s1,.9,2.4,1.1c6.7.7,20.4.6,27.2,0,2-.2,2.1-.6,3.4-1.1s1.2.4,2.1-.7c1.9-2.3,6.4-13.9,8.1-17.7,10.3-22.8,19.3-46.2,30.4-68.7l-.6-3c-1-1.7-3.8-1-5.5-1h-24c-8,0-4.4-.6-5.5,1h0ZM146,229c1,.9.9.9,2.4,1.1,7.4.7,21.7.6,29.2,0,1.2-.1,2.7.3,3.4-1.1l21-48h-35.5l-21.1,46c-.9,1.6-.2,1.3.6,2h0ZM290,181h-36l-63,145h35.5l63.5-145Z"/>
  <polygon class="st0" points="357.6 113.5 201.6 469.6 114.5 469.6 269.2 113.5 357.6 113.5"/>
  <polygon class="st0" points="293.7 10.4 137.8 366.5 50.6 366.5 206.5 10.4 293.7 10.4"/>
  <path class="st2" d="M4,231.4c-2-1.7-3.4-1-1.5-4.9l51.8-113h87.2l-51.6,117.9H4Z"/>
  <path class="st0" d="M477.9,84.1l1.5,7.4c-27.3,55-49.4,112.7-74.6,168.7-4.2,9.3-15.2,37.6-19.9,43.5-4.7,5.9-3.7,1.2-5.2,1.7h-81c-3.2-3.2-2.7-3.2-1.5-7.4l94.8-213.6h85.9v-.2Z"/>
</svg>
