<?xml version="1.0" encoding="UTF-8"?>
<svg id="Layer_1" xmlns="http://www.w3.org/2000/svg" version="1.1" viewBox="0 0 3438.5 856.2">
  <!-- Generator: Adobe Illustrator 29.7.1, SVG Export Plug-In . SVG Version: 2.1.1 Build 8)  -->
  <g id="Layer_2">
    <g id="LOGOS" fill="#ffffff">
      <polygon points="0 322.6 204.4 322.6 332.1 599.9 461.2 323 570.2 323 700.4 599.9 830.6 322.6 1033.2 322.6 764.2 837.5 644.4 837.5 516.6 558.3 390.1 841.2 271.2 841.2 0 322.6"/>
      <path d="M1387.5,322.6l-.2,45.3c-8.5-7.8-17.6-15-27.1-21.5-9.2-6.3-61.5-40.9-131-43-104.1-3.1-174.9,69.1-189,84.2-66.7,71.4-71.1,156.2-72,180.5-1.1,29.5.8,126.3,75,205.7,51.9,55.6,122.3,82.3,182.8,82.3,111.9,0,161.5-74.8,161.5-74.8v59.9h183.7V322.6h-183.6ZM1275,695.3c-61.9-1-115.5-52.1-116-116-.5-65,54.2-117.8,117.9-117.9,61.7,0,114.5,49.3,117.8,110.4,3.6,66.7-52.9,124.5-119.7,123.5Z"/>
      <path d="M1600.8,0v841.2h185.8v-287.1c0-8.2.5-55.6,36.6-85.8,12.3-10.3,27.1-17.2,42.9-20,26.2-4.2,59.3,3.3,76.7,26.2,9.9,13,13.6,29.4,15,35.5,3,13.1,4.7,32.7,4.7,32.7v298.4h183.7v-344s2-99.1-68.6-155.6c-47.6-38.1-104.2-38.2-124.2-38.4-42.4-.4-73.2,11.5-79.8,14.1-49.7,19.9-78.1,54.8-89.8,71.1V0h-183Z"/>
      <path d="M2722,396.9c-82.4-92.4-197.6-96.2-228.2-97.3-25.9-.9-161.9-5.5-254.4,99.1-15.3,17.4-69.1,80.1-71.1,175.9-2.2,109.9,65.5,181.3,78.6,194.6,76.2,77.2,173.3,80.8,215.2,82.3,32.2,1.2,176.4,6.5,267.5-102.9,20-24,64.4-85.9,63.6-174-.9-97-55.9-160.6-71.1-177.7ZM2571.4,654.2c-31.5,38.5-77.8,41-89.8,41.2-13.8.2-56.2-1.5-87.9-35.5-29.3-31.5-29.9-69.5-29.9-82.3s0-50.9,29.9-82.3c32.8-34.4,76.9-33.8,87.9-33.7,10.8.1,53.2.7,84.2,33.7,21.5,22.8,26,49,28.1,61.7,2,12.3,9.4,58.4-22.4,97.3Z"/>
      <path d="M3367.4,396.9c-82.4-92.4-197.6-96.2-228.2-97.3-25.9-.9-161.9-5.5-254.4,99.1-15.3,17.4-69.1,80.1-71.1,175.9-2.2,109.9,65.5,181.3,78.6,194.6,76.2,77.2,173.4,80.8,215.1,82.3,32.2,1.2,176.4,6.5,267.5-102.9,20-24,64.4-85.9,63.6-174-.9-97-55.9-160.6-71.1-177.7ZM3216.8,654.2c-31.5,38.5-77.8,41-89.8,41.2-13.8.2-56.2-1.5-87.9-35.5-29.3-31.5-29.9-69.5-29.9-82.3s0-50.9,29.9-82.3c32.8-34.4,76.9-33.8,87.9-33.7,10.8.1,53.2.7,84.2,33.7,21.5,22.8,26,49,28.1,61.7,2,12.3,9.4,58.4-22.4,97.3Z"/>
    </g>
  </g>
</svg>
