<?xml version="1.0" encoding="UTF-8"?>
<svg id="Layer_1" xmlns="http://www.w3.org/2000/svg" version="1.1" viewBox="0 0 2500 2390">
  <!-- Generator: Adobe Illustrator 29.7.1, SVG Export Plug-In . SVG Version: 2.1.1 Build 8)  -->
  <defs>
    <style>
      .st0 {
        fill: #c73a63;
      }

      .st1 {
        fill: #4a4a4a;
      }

      .st2 {
        fill: #4b4b4b;
      }
    </style>
  </defs>
  <path class="st0" d="M1171.6,1006.8c-104,174.8-203.6,344.1-305.3,512.1-26.1,43.1-39,78.3-18.2,133.1,57.6,151.5-23.7,298.9-176.4,338.9-144,37.7-284.4-56.9-313-211.1-25.3-136.5,80.6-270.3,231.1-291.7,12.6-1.8,25.5-2,46.7-3.6l228.9-383.9c-144-143.2-229.7-310.5-210.7-517.9,13.4-146.6,71.1-273.3,176.4-377.1C1033,6.7,1340.9-25.5,1578.5,127.1c228.2,146.6,332.7,432.2,243.6,676.6-67.2-18.2-134.8-36.6-209.2-56.7,28-135.9,7.3-257.9-84.4-362.5-60.6-69-138.3-105.2-226.6-118.5-177.1-26.8-351,87-402.6,260.9-58.6,197.3,30.1,358.5,272.3,479.9h0Z"/>
  <path class="st2" d="M1468.6,800.1c73.3,129.2,147.7,260.4,221.4,390.4,372.6-115.3,653.6,91,754.4,311.8,121.8,266.8,38.5,582.8-200.6,747.3-245.4,169-555.8,140.1-773.2-76.9,55.4-46.4,111.1-93,170.6-142.8,214.8,139.1,402.6,132.6,542.1-32.2,118.9-140.5,116.3-350-6-487.6-141.2-158.8-330.4-163.6-559-11.2-94.8-168.3-191.3-335.2-283.2-504.7-31-57.1-65.2-90.3-135-102.4-116.6-20.2-191.8-120.3-196.3-232.5-4.4-110.9,60.9-211.2,163-250.2,101.2-38.7,219.9-7.5,287.9,78.5,55.6,70.3,73.3,149.4,44,236-8.1,24.2-18.7,47.6-30.1,76.2h0Z"/>
  <path class="st1" d="M1643.7,1856.7h-448.6c-43,176.9-135.9,319.6-295.9,410.4-124.4,70.6-258.5,94.5-401.2,71.5C235.3,2296.2,20.4,2059.6,1.5,1793.3c-21.4-301.7,186-569.9,462.4-630.2,19.1,69.3,38.4,139.3,57.5,208.4-253.6,129.4-341.4,292.4-270.4,496.3,62.5,179.4,240,277.7,432.7,239.7,196.8-38.8,296-202.4,283.9-464.9,186.6,0,373.3-1.9,559.9,1,72.9,1.1,129.1-6.4,184-70.6,90.4-105.7,256.7-96.2,354,3.7,99.5,102,94.7,266.2-10.6,363.9-101.6,94.3-262,89.3-357-12.3-19.5-20.9-34.9-45.8-54.2-71.5h0Z"/>
</svg>
